<?xml version="1.0" encoding="UTF-8" standalone="no"?>
<!-- Created with Inkscape (http://www.inkscape.org/) -->

<svg
   width="128mm"
   height="128mm"
   viewBox="0 0 128 128"
   version="1.1"
   id="svg5"
   xmlns="http://www.w3.org/2000/svg"
   xmlns:svg="http://www.w3.org/2000/svg">
  <defs
     id="defs2" />
  <g
     id="layer1">
    <rect
       style="fill:#ffffbb;fill-opacity:1;stroke-width:0.565233"
       id="rect111"
       width="128"
       height="128"
       x="0"
       y="-2.220446e-16" />
    <path
       d="m 64.859683,10.984623 23.31881,9.348568 c 2.33188,0.934856 0.462166,5.598619 -1.869715,4.663762 L 81.645017,23.127241 78.367759,38.05338 c 0,0 8.392665,6.07131 4.653239,15.398833 -0.934858,2.331881 -17.258024,-4.212116 -17.258024,-4.212116 0,0 -5.60914,13.991284 -7.94102,13.056428 -2.33188,-0.934858 3.27726,-14.926141 3.27726,-14.926141 0,0 -16.323166,-6.543998 -15.388309,-8.87588 3.739427,-9.327522 14.001806,-7.919977 14.001806,-7.919977 l 7.941022,-13.056428 -4.663761,-1.869714 c -2.331882,-0.934856 -0.462167,-5.598617 1.869711,-4.663762 z"
       id="path2925"
       style="stroke-width:0.243434" />
  </g>
</svg>
