<?xml version="1.0" encoding="UTF-8" standalone="no"?>
<!-- Created with Inkscape (http://www.inkscape.org/) -->

<svg
   width="40mm"
   height="40mm"
   viewBox="0 0 39.999999 40"
   version="1.1"
   id="svg1"
   xmlns="http://www.w3.org/2000/svg"
   xmlns:svg="http://www.w3.org/2000/svg">
  <defs
     id="defs1" />
  <g
     id="layer1"
     transform="translate(-79.000008,-50.881527)">
    <rect
       style="fill:#fef7b1;fill-opacity:1;stroke:none;stroke-width:0.497391;stroke-linejoin:bevel;stroke-opacity:1;paint-order:markers fill stroke"
       id="rect2"
       width="40"
       height="40"
       x="79.000008"
       y="50.881527" />
    <path
       style="fill:#333333;stroke:none;stroke-width:0.536289;stroke-linejoin:bevel;paint-order:markers fill stroke"
       d="m 103.20901,56.08823 7.58429,7.584284 c 0.75843,0.758429 -0.75843,2.275285 -1.51685,1.516858 l -1.51687,-1.516858 -3.79213,5.309 c 0,0 2.27528,3.792141 -0.75844,6.825855 -0.75842,0.758428 -6.067417,-4.55057 -6.067417,-4.55057 0,0 -4.550571,4.55057 -5.308999,3.792142 -0.758429,-0.758429 3.792146,-5.309 3.792146,-5.309 0,0 -5.309002,-5.308998 -4.550575,-6.067427 3.033711,-3.033713 6.82586,-0.758428 6.82586,-0.758428 l 5.308985,-3.792142 -1.51685,-1.516856 c -0.75843,-0.758429 0.75843,-2.275285 1.51685,-1.516858 z"
       id="path1" />
  </g>
</svg>
